<mxfile host="app.diagrams.net" modified="2023-10-24T07:59:57.204Z" agent="Mozilla/5.0 (X11; Ubuntu; Linux x86_64; rv:109.0) Gecko/20100101 Firefox/119.0" etag="xPWfrog4JOyynx9I8L67" version="22.0.6" type="github" pages="2">
  <diagram name="CU simple" id="mCmbSoC8vtWFZBo_XUnz">
    <mxGraphModel dx="1434" dy="797" grid="1" gridSize="10" guides="1" tooltips="1" connect="1" arrows="1" fold="1" page="1" pageScale="1" pageWidth="827" pageHeight="1169" math="0" shadow="0">
      <root>
        <mxCell id="0" />
        <mxCell id="1" parent="0" />
        <mxCell id="1KvB64QWvfboyXdZkjhp-1" value="Pompier" style="shape=umlActor;verticalLabelPosition=bottom;verticalAlign=top;html=1;outlineConnect=0;" parent="1" vertex="1">
          <mxGeometry x="100" y="180" width="50" height="100" as="geometry" />
        </mxCell>
        <mxCell id="1KvB64QWvfboyXdZkjhp-2" style="edgeStyle=orthogonalEdgeStyle;rounded=0;orthogonalLoop=1;jettySize=auto;html=1;endArrow=block;endFill=0;jumpSize=10;strokeWidth=2;targetPerimeterSpacing=0;endSize=18;" parent="1" edge="1">
          <mxGeometry relative="1" as="geometry">
            <mxPoint x="125" y="320" as="targetPoint" />
            <mxPoint x="125" y="460" as="sourcePoint" />
          </mxGeometry>
        </mxCell>
        <mxCell id="1KvB64QWvfboyXdZkjhp-3" value="Administrateur" style="shape=umlActor;verticalLabelPosition=bottom;verticalAlign=top;html=1;outlineConnect=0;" parent="1" vertex="1">
          <mxGeometry x="100" y="485" width="50" height="100" as="geometry" />
        </mxCell>
        <mxCell id="1KvB64QWvfboyXdZkjhp-4" value="" style="rounded=0;whiteSpace=wrap;html=1;fillColor=none;movable=1;resizable=1;rotatable=1;deletable=1;editable=1;locked=0;connectable=1;" parent="1" vertex="1">
          <mxGeometry x="204" y="45" width="420" height="740" as="geometry" />
        </mxCell>
        <mxCell id="1KvB64QWvfboyXdZkjhp-5" value="Se connecter" style="ellipse;whiteSpace=wrap;html=1;" parent="1" vertex="1">
          <mxGeometry x="354" y="100" width="120" height="50" as="geometry" />
        </mxCell>
        <mxCell id="1KvB64QWvfboyXdZkjhp-6" value="Appli_Pompiers" style="text;html=1;strokeColor=none;fillColor=none;align=center;verticalAlign=middle;whiteSpace=wrap;rounded=0;" parent="1" vertex="1">
          <mxGeometry x="370" y="45" width="100" height="30" as="geometry" />
        </mxCell>
        <mxCell id="1KvB64QWvfboyXdZkjhp-7" value="Serveur BD" style="shape=umlActor;verticalLabelPosition=bottom;verticalAlign=top;html=1;outlineConnect=0;" parent="1" vertex="1">
          <mxGeometry x="750" y="320" width="50" height="100" as="geometry" />
        </mxCell>
        <mxCell id="1KvB64QWvfboyXdZkjhp-8" value="" style="endArrow=none;html=1;rounded=0;exitX=1;exitY=0.5;exitDx=0;exitDy=0;" parent="1" source="1KvB64QWvfboyXdZkjhp-5" edge="1">
          <mxGeometry width="50" height="50" relative="1" as="geometry">
            <mxPoint x="473.7600000000002" y="117.65000000000003" as="sourcePoint" />
            <mxPoint x="730" y="370" as="targetPoint" />
          </mxGeometry>
        </mxCell>
        <mxCell id="1KvB64QWvfboyXdZkjhp-9" value="Consulter documents" style="ellipse;whiteSpace=wrap;html=1;" parent="1" vertex="1">
          <mxGeometry x="354" y="220" width="120" height="50" as="geometry" />
        </mxCell>
        <mxCell id="1KvB64QWvfboyXdZkjhp-10" value="" style="endArrow=none;html=1;rounded=0;entryX=0;entryY=0.5;entryDx=0;entryDy=0;" parent="1" target="1KvB64QWvfboyXdZkjhp-5" edge="1">
          <mxGeometry width="50" height="50" relative="1" as="geometry">
            <mxPoint x="170" y="237" as="sourcePoint" />
            <mxPoint x="354.00000000000034" y="132" as="targetPoint" />
          </mxGeometry>
        </mxCell>
        <mxCell id="1KvB64QWvfboyXdZkjhp-11" value="" style="endArrow=none;html=1;rounded=0;entryX=0;entryY=0.5;entryDx=0;entryDy=0;" parent="1" target="1KvB64QWvfboyXdZkjhp-9" edge="1">
          <mxGeometry width="50" height="50" relative="1" as="geometry">
            <mxPoint x="170" y="243" as="sourcePoint" />
            <mxPoint x="354.00000000000034" y="248" as="targetPoint" />
          </mxGeometry>
        </mxCell>
        <mxCell id="1KvB64QWvfboyXdZkjhp-12" value="" style="endArrow=none;html=1;rounded=0;exitX=1;exitY=0.5;exitDx=0;exitDy=0;" parent="1" source="1KvB64QWvfboyXdZkjhp-9" edge="1">
          <mxGeometry width="50" height="50" relative="1" as="geometry">
            <mxPoint x="474.00000000000205" y="247" as="sourcePoint" />
            <mxPoint x="730" y="380" as="targetPoint" />
          </mxGeometry>
        </mxCell>
        <mxCell id="1KvB64QWvfboyXdZkjhp-13" value="&lt;font style=&quot;font-size: 18px;&quot;&gt;Appli pompiers simple &lt;/font&gt;" style="text;html=1;align=center;verticalAlign=middle;resizable=0;points=[];autosize=1;strokeColor=none;fillColor=none;" parent="1" vertex="1">
          <mxGeometry x="320" y="5" width="200" height="40" as="geometry" />
        </mxCell>
        <mxCell id="1KvB64QWvfboyXdZkjhp-14" style="rounded=0;orthogonalLoop=1;jettySize=auto;html=1;endArrow=none;endFill=0;exitX=1;exitY=0.5;exitDx=0;exitDy=0;" parent="1" source="1KvB64QWvfboyXdZkjhp-15" edge="1">
          <mxGeometry relative="1" as="geometry">
            <mxPoint x="720" y="420" as="targetPoint" />
          </mxGeometry>
        </mxCell>
        <mxCell id="1KvB64QWvfboyXdZkjhp-15" value="Gérer documents" style="ellipse;whiteSpace=wrap;html=1;" parent="1" vertex="1">
          <mxGeometry x="354" y="447.5" width="120" height="50" as="geometry" />
        </mxCell>
        <mxCell id="1KvB64QWvfboyXdZkjhp-16" value="Se déconnecter" style="ellipse;whiteSpace=wrap;html=1;" parent="1" vertex="1">
          <mxGeometry x="354" y="160" width="120" height="50" as="geometry" />
        </mxCell>
        <mxCell id="1KvB64QWvfboyXdZkjhp-17" value="" style="endArrow=none;html=1;rounded=0;entryX=0;entryY=0.5;entryDx=0;entryDy=0;" parent="1" target="1KvB64QWvfboyXdZkjhp-16" edge="1">
          <mxGeometry width="50" height="50" relative="1" as="geometry">
            <mxPoint x="170" y="240" as="sourcePoint" />
            <mxPoint x="364" y="135" as="targetPoint" />
          </mxGeometry>
        </mxCell>
        <mxCell id="1KvB64QWvfboyXdZkjhp-18" style="rounded=0;orthogonalLoop=1;jettySize=auto;html=1;exitX=1;exitY=0.5;exitDx=0;exitDy=0;endArrow=none;endFill=0;" parent="1" source="1KvB64QWvfboyXdZkjhp-19" edge="1">
          <mxGeometry relative="1" as="geometry">
            <mxPoint x="720" y="430" as="targetPoint" />
            <mxPoint x="474" y="607.5" as="sourcePoint" />
          </mxGeometry>
        </mxCell>
        <mxCell id="1KvB64QWvfboyXdZkjhp-19" value="Gérer comptes" style="ellipse;whiteSpace=wrap;html=1;" parent="1" vertex="1">
          <mxGeometry x="354" y="572.5" width="120" height="50" as="geometry" />
        </mxCell>
        <mxCell id="1KvB64QWvfboyXdZkjhp-20" value="" style="endArrow=none;html=1;rounded=0;entryX=0;entryY=0.5;entryDx=0;entryDy=0;" parent="1" target="1KvB64QWvfboyXdZkjhp-15" edge="1">
          <mxGeometry width="50" height="50" relative="1" as="geometry">
            <mxPoint x="170" y="535" as="sourcePoint" />
            <mxPoint x="353.99999999999943" y="477.5" as="targetPoint" />
          </mxGeometry>
        </mxCell>
        <mxCell id="1KvB64QWvfboyXdZkjhp-21" value="" style="endArrow=none;html=1;rounded=0;entryX=0;entryY=0.5;entryDx=0;entryDy=0;" parent="1" target="1KvB64QWvfboyXdZkjhp-19" edge="1">
          <mxGeometry width="50" height="50" relative="1" as="geometry">
            <mxPoint x="170" y="540" as="sourcePoint" />
            <mxPoint x="374" y="265" as="targetPoint" />
          </mxGeometry>
        </mxCell>
      </root>
    </mxGraphModel>
  </diagram>
  <diagram id="eHFG686vaj9EIRjy9gkB" name="CU complexe">
    <mxGraphModel dx="1687" dy="938" grid="1" gridSize="10" guides="1" tooltips="1" connect="1" arrows="1" fold="1" page="1" pageScale="1" pageWidth="827" pageHeight="1169" math="0" shadow="0">
      <root>
        <mxCell id="0" />
        <mxCell id="1" parent="0" />
        <mxCell id="3--xMGiLJOlRFOcfJifF-4" value="" style="rounded=0;whiteSpace=wrap;html=1;fillColor=none;movable=0;resizable=0;rotatable=0;deletable=0;editable=0;locked=1;connectable=0;" parent="1" vertex="1">
          <mxGeometry x="204" y="70" width="420" height="730" as="geometry" />
        </mxCell>
        <mxCell id="HNt4eGYvrkAN268ZBR9r-1" value="Pompier" style="shape=umlActor;verticalLabelPosition=bottom;verticalAlign=top;html=1;outlineConnect=0;" vertex="1" parent="1">
          <mxGeometry x="100" y="180" width="50" height="100" as="geometry" />
        </mxCell>
        <mxCell id="HNt4eGYvrkAN268ZBR9r-2" style="edgeStyle=orthogonalEdgeStyle;rounded=0;orthogonalLoop=1;jettySize=auto;html=1;endArrow=block;endFill=0;jumpSize=10;strokeWidth=2;targetPerimeterSpacing=0;endSize=18;" edge="1" parent="1">
          <mxGeometry relative="1" as="geometry">
            <mxPoint x="125" y="320" as="targetPoint" />
            <mxPoint x="125" y="460" as="sourcePoint" />
          </mxGeometry>
        </mxCell>
        <mxCell id="HNt4eGYvrkAN268ZBR9r-3" value="Administrateur" style="shape=umlActor;verticalLabelPosition=bottom;verticalAlign=top;html=1;outlineConnect=0;" vertex="1" parent="1">
          <mxGeometry x="100" y="485" width="50" height="100" as="geometry" />
        </mxCell>
        <mxCell id="HNt4eGYvrkAN268ZBR9r-4" value="" style="rounded=0;whiteSpace=wrap;html=1;fillColor=none;movable=0;resizable=0;rotatable=0;deletable=0;editable=0;locked=1;connectable=0;" vertex="1" parent="1">
          <mxGeometry x="204" y="70" width="420" height="730" as="geometry" />
        </mxCell>
        <mxCell id="HNt4eGYvrkAN268ZBR9r-5" value="" style="endArrow=none;html=1;rounded=0;exitX=1;exitY=0.5;exitDx=0;exitDy=0;entryX=0;entryY=0.5;entryDx=0;entryDy=0;" edge="1" parent="1" target="HNt4eGYvrkAN268ZBR9r-12">
          <mxGeometry width="50" height="50" relative="1" as="geometry">
            <mxPoint x="178" y="235" as="sourcePoint" />
            <mxPoint x="364" y="135" as="targetPoint" />
          </mxGeometry>
        </mxCell>
        <mxCell id="HNt4eGYvrkAN268ZBR9r-6" value="" style="endArrow=none;html=1;rounded=0;exitX=1;exitY=0.5;exitDx=0;exitDy=0;" edge="1" parent="1" source="HNt4eGYvrkAN268ZBR9r-12">
          <mxGeometry width="50" height="50" relative="1" as="geometry">
            <mxPoint x="490" y="250" as="sourcePoint" />
            <mxPoint x="720" y="430" as="targetPoint" />
          </mxGeometry>
        </mxCell>
        <mxCell id="HNt4eGYvrkAN268ZBR9r-7" value="Se connecter" style="ellipse;whiteSpace=wrap;html=1;" vertex="1" parent="1">
          <mxGeometry x="360" y="100" width="120" height="50" as="geometry" />
        </mxCell>
        <mxCell id="HNt4eGYvrkAN268ZBR9r-8" value="Gérer document" style="ellipse;whiteSpace=wrap;html=1;" vertex="1" parent="1">
          <mxGeometry x="354" y="410" width="120" height="50" as="geometry" />
        </mxCell>
        <mxCell id="HNt4eGYvrkAN268ZBR9r-9" value="Appli_Pompiers" style="text;html=1;strokeColor=none;fillColor=none;align=center;verticalAlign=middle;whiteSpace=wrap;rounded=0;" vertex="1" parent="1">
          <mxGeometry x="370" y="70" width="100" height="30" as="geometry" />
        </mxCell>
        <mxCell id="HNt4eGYvrkAN268ZBR9r-10" value="Serveur BD" style="shape=umlActor;verticalLabelPosition=bottom;verticalAlign=top;html=1;outlineConnect=0;" vertex="1" parent="1">
          <mxGeometry x="740" y="385" width="50" height="100" as="geometry" />
        </mxCell>
        <mxCell id="HNt4eGYvrkAN268ZBR9r-11" value="" style="endArrow=none;html=1;rounded=0;exitX=0.998;exitY=0.393;exitDx=0;exitDy=0;exitPerimeter=0;" edge="1" parent="1" source="HNt4eGYvrkAN268ZBR9r-7">
          <mxGeometry width="50" height="50" relative="1" as="geometry">
            <mxPoint x="690" y="210" as="sourcePoint" />
            <mxPoint x="720" y="420" as="targetPoint" />
          </mxGeometry>
        </mxCell>
        <mxCell id="HNt4eGYvrkAN268ZBR9r-12" value="Consulter documents" style="ellipse;whiteSpace=wrap;html=1;" vertex="1" parent="1">
          <mxGeometry x="360" y="210" width="120" height="50" as="geometry" />
        </mxCell>
        <mxCell id="HNt4eGYvrkAN268ZBR9r-13" value="" style="endArrow=none;html=1;rounded=0;exitX=1;exitY=0.5;exitDx=0;exitDy=0;entryX=0;entryY=0.5;entryDx=0;entryDy=0;" edge="1" parent="1" target="HNt4eGYvrkAN268ZBR9r-7">
          <mxGeometry width="50" height="50" relative="1" as="geometry">
            <mxPoint x="168" y="225" as="sourcePoint" />
            <mxPoint x="414" y="220" as="targetPoint" />
          </mxGeometry>
        </mxCell>
        <mxCell id="HNt4eGYvrkAN268ZBR9r-14" value="Ajouter documents" style="ellipse;whiteSpace=wrap;html=1;" vertex="1" parent="1">
          <mxGeometry x="354" y="485" width="120" height="50" as="geometry" />
        </mxCell>
        <mxCell id="HNt4eGYvrkAN268ZBR9r-15" value="Supprimer documents" style="ellipse;whiteSpace=wrap;html=1;" vertex="1" parent="1">
          <mxGeometry x="480" y="470" width="120" height="50" as="geometry" />
        </mxCell>
        <mxCell id="HNt4eGYvrkAN268ZBR9r-16" value="Gérer comptes" style="ellipse;whiteSpace=wrap;html=1;" vertex="1" parent="1">
          <mxGeometry x="354" y="630" width="120" height="50" as="geometry" />
        </mxCell>
        <mxCell id="HNt4eGYvrkAN268ZBR9r-17" value="Ajouter compte" style="ellipse;whiteSpace=wrap;html=1;" vertex="1" parent="1">
          <mxGeometry x="210" y="700" width="120" height="50" as="geometry" />
        </mxCell>
        <mxCell id="HNt4eGYvrkAN268ZBR9r-18" value="Modifier un compte" style="ellipse;whiteSpace=wrap;html=1;" vertex="1" parent="1">
          <mxGeometry x="354" y="740" width="120" height="50" as="geometry" />
        </mxCell>
        <mxCell id="HNt4eGYvrkAN268ZBR9r-19" value="Suppression compte" style="ellipse;whiteSpace=wrap;html=1;" vertex="1" parent="1">
          <mxGeometry x="490" y="700" width="120" height="50" as="geometry" />
        </mxCell>
        <mxCell id="HNt4eGYvrkAN268ZBR9r-20" value="Filtrer document" style="ellipse;whiteSpace=wrap;html=1;" vertex="1" parent="1">
          <mxGeometry x="260" y="290" width="120" height="50" as="geometry" />
        </mxCell>
        <mxCell id="HNt4eGYvrkAN268ZBR9r-21" value="Mettre à jour document" style="ellipse;whiteSpace=wrap;html=1;" vertex="1" parent="1">
          <mxGeometry x="220" y="480" width="120" height="50" as="geometry" />
        </mxCell>
        <mxCell id="HNt4eGYvrkAN268ZBR9r-22" value="" style="endArrow=none;dashed=1;html=1;dashPattern=1 3;strokeWidth=2;rounded=0;entryX=0;entryY=1;entryDx=0;entryDy=0;exitX=0.717;exitY=0.08;exitDx=0;exitDy=0;exitPerimeter=0;startArrow=classic;startFill=1;" edge="1" parent="1" source="HNt4eGYvrkAN268ZBR9r-20" target="HNt4eGYvrkAN268ZBR9r-12">
          <mxGeometry width="50" height="50" relative="1" as="geometry">
            <mxPoint x="390" y="440" as="sourcePoint" />
            <mxPoint x="440" y="390" as="targetPoint" />
          </mxGeometry>
        </mxCell>
        <mxCell id="HNt4eGYvrkAN268ZBR9r-23" value="" style="endArrow=none;html=1;rounded=0;exitX=1;exitY=0.5;exitDx=0;exitDy=0;entryX=0;entryY=0.5;entryDx=0;entryDy=0;" edge="1" parent="1" target="HNt4eGYvrkAN268ZBR9r-8">
          <mxGeometry width="50" height="50" relative="1" as="geometry">
            <mxPoint x="160" y="494.5" as="sourcePoint" />
            <mxPoint x="342" y="494.5" as="targetPoint" />
          </mxGeometry>
        </mxCell>
        <mxCell id="HNt4eGYvrkAN268ZBR9r-24" value="" style="endArrow=none;html=1;rounded=0;exitX=1;exitY=0.5;exitDx=0;exitDy=0;entryX=0.017;entryY=0.3;entryDx=0;entryDy=0;entryPerimeter=0;" edge="1" parent="1" target="HNt4eGYvrkAN268ZBR9r-16">
          <mxGeometry width="50" height="50" relative="1" as="geometry">
            <mxPoint x="159" y="510" as="sourcePoint" />
            <mxPoint x="354" y="444.5" as="targetPoint" />
          </mxGeometry>
        </mxCell>
        <mxCell id="HNt4eGYvrkAN268ZBR9r-25" value="&amp;lt;&amp;lt;extend&amp;gt;&amp;gt;" style="text;html=1;strokeColor=none;fillColor=none;align=center;verticalAlign=middle;whiteSpace=wrap;rounded=0;" vertex="1" parent="1">
          <mxGeometry x="370" y="260" width="60" height="30" as="geometry" />
        </mxCell>
        <mxCell id="HNt4eGYvrkAN268ZBR9r-26" value="" style="endArrow=block;endSize=11;endFill=0;html=1;rounded=0;" edge="1" parent="1" source="HNt4eGYvrkAN268ZBR9r-19" target="HNt4eGYvrkAN268ZBR9r-16">
          <mxGeometry width="160" relative="1" as="geometry">
            <mxPoint x="550" y="560" as="sourcePoint" />
            <mxPoint x="580" y="530" as="targetPoint" />
          </mxGeometry>
        </mxCell>
        <mxCell id="HNt4eGYvrkAN268ZBR9r-27" value="" style="endArrow=block;endSize=11;endFill=0;html=1;rounded=0;" edge="1" parent="1" source="HNt4eGYvrkAN268ZBR9r-17" target="HNt4eGYvrkAN268ZBR9r-16">
          <mxGeometry width="160" relative="1" as="geometry">
            <mxPoint x="324" y="690" as="sourcePoint" />
            <mxPoint x="354" y="660" as="targetPoint" />
          </mxGeometry>
        </mxCell>
        <mxCell id="HNt4eGYvrkAN268ZBR9r-28" value="" style="endArrow=block;endSize=11;endFill=0;html=1;rounded=0;" edge="1" parent="1" source="HNt4eGYvrkAN268ZBR9r-15" target="HNt4eGYvrkAN268ZBR9r-8">
          <mxGeometry width="160" relative="1" as="geometry">
            <mxPoint x="520" y="637" as="sourcePoint" />
            <mxPoint x="520" y="532" as="targetPoint" />
          </mxGeometry>
        </mxCell>
        <mxCell id="HNt4eGYvrkAN268ZBR9r-29" value="" style="endArrow=block;endSize=11;endFill=0;html=1;rounded=0;" edge="1" parent="1" source="HNt4eGYvrkAN268ZBR9r-18" target="HNt4eGYvrkAN268ZBR9r-16">
          <mxGeometry width="160" relative="1" as="geometry">
            <mxPoint x="522" y="716" as="sourcePoint" />
            <mxPoint x="462" y="684" as="targetPoint" />
          </mxGeometry>
        </mxCell>
        <mxCell id="HNt4eGYvrkAN268ZBR9r-30" value="" style="endArrow=block;endSize=11;endFill=0;html=1;rounded=0;" edge="1" parent="1" source="HNt4eGYvrkAN268ZBR9r-21" target="HNt4eGYvrkAN268ZBR9r-8">
          <mxGeometry width="160" relative="1" as="geometry">
            <mxPoint x="549.5" y="600" as="sourcePoint" />
            <mxPoint x="549.5" y="540" as="targetPoint" />
          </mxGeometry>
        </mxCell>
        <mxCell id="HNt4eGYvrkAN268ZBR9r-31" value="" style="endArrow=block;endSize=11;endFill=0;html=1;rounded=0;" edge="1" parent="1" source="HNt4eGYvrkAN268ZBR9r-14" target="HNt4eGYvrkAN268ZBR9r-8">
          <mxGeometry width="160" relative="1" as="geometry">
            <mxPoint x="424" y="750" as="sourcePoint" />
            <mxPoint x="424" y="690" as="targetPoint" />
          </mxGeometry>
        </mxCell>
        <mxCell id="HNt4eGYvrkAN268ZBR9r-32" value="" style="endArrow=none;html=1;rounded=0;exitX=1;exitY=0.5;exitDx=0;exitDy=0;" edge="1" parent="1">
          <mxGeometry width="50" height="50" relative="1" as="geometry">
            <mxPoint x="474" y="435" as="sourcePoint" />
            <mxPoint x="720" y="435" as="targetPoint" />
          </mxGeometry>
        </mxCell>
        <mxCell id="HNt4eGYvrkAN268ZBR9r-33" value="" style="endArrow=none;html=1;rounded=0;exitX=1;exitY=0.5;exitDx=0;exitDy=0;" edge="1" parent="1">
          <mxGeometry width="50" height="50" relative="1" as="geometry">
            <mxPoint x="474" y="655" as="sourcePoint" />
            <mxPoint x="720" y="440" as="targetPoint" />
          </mxGeometry>
        </mxCell>
        <mxCell id="HNt4eGYvrkAN268ZBR9r-34" value="&amp;lt;&amp;lt;includes&amp;gt;&amp;gt;" style="endArrow=classic;dashed=1;html=1;dashPattern=1 3;strokeWidth=2;rounded=0;entryX=1;entryY=0.5;entryDx=0;entryDy=0;startArrow=none;startFill=0;endFill=1;exitX=0.5;exitY=1;exitDx=0;exitDy=0;fillColor=none;" edge="1" parent="1" source="HNt4eGYvrkAN268ZBR9r-15" target="HNt4eGYvrkAN268ZBR9r-36">
          <mxGeometry x="-0.9641" y="22" width="50" height="50" relative="1" as="geometry">
            <mxPoint x="548" y="515" as="sourcePoint" />
            <mxPoint x="530" y="555" as="targetPoint" />
            <mxPoint as="offset" />
          </mxGeometry>
        </mxCell>
        <mxCell id="HNt4eGYvrkAN268ZBR9r-35" value="&amp;lt;&amp;lt;includes&amp;gt;&amp;gt;" style="endArrow=classic;dashed=1;html=1;dashPattern=1 3;strokeWidth=2;rounded=0;startArrow=none;startFill=0;endFill=1;entryX=0;entryY=0.5;entryDx=0;entryDy=0;exitX=0.5;exitY=1;exitDx=0;exitDy=0;" edge="1" parent="1" source="HNt4eGYvrkAN268ZBR9r-21" target="HNt4eGYvrkAN268ZBR9r-36">
          <mxGeometry x="-0.8309" y="-18" width="50" height="50" relative="1" as="geometry">
            <mxPoint x="420" y="560" as="sourcePoint" />
            <mxPoint x="461" y="578" as="targetPoint" />
            <mxPoint as="offset" />
          </mxGeometry>
        </mxCell>
        <mxCell id="HNt4eGYvrkAN268ZBR9r-36" value="Archiver document" style="ellipse;whiteSpace=wrap;html=1;" vertex="1" parent="1">
          <mxGeometry x="364" y="545" width="100" height="40" as="geometry" />
        </mxCell>
      </root>
    </mxGraphModel>
  </diagram>
</mxfile>
